<?xml version="1.0" standalone="no"?><!DOCTYPE svg PUBLIC "-//W3C//DTD SVG 1.1//EN" "http://www.w3.org/Graphics/SVG/1.1/DTD/svg11.dtd"><svg t="1594534310410" class="icon" viewBox="0 0 1024 1024" version="1.1" xmlns="http://www.w3.org/2000/svg" p-id="2232" xmlns:xlink="http://www.w3.org/1999/xlink" width="64" height="64"><defs><style type="text/css"></style></defs><path d="M874.24 511.402667c6.272 63.061333-54.4 109.226667-64.469333 117.461333a2667.093333 2667.093333 0 0 1-155.818667 116.48c-58.453333 40.96-115.669333 73.770667-171.52 98.389333-6.912 2.986667-21.034667 7.68-42.410667 13.909334a136.533333 136.533333 0 0 1-174.122666-117.290667C259.285333 675.285333 256 595.626667 256 501.333333c0-85.418667 2.688-157.44 8.106667-216.106666a128 128 0 0 1 172.373333-108.074667c44.032 16.469333 73.642667 29.013333 88.789333 37.674667 28.842667 16.426667 60.16 35.072 93.866667 56.064 66.261333 41.173333 121.728 79.530667 166.4 115.072 24.789333 19.754667 82.346667 62.378667 88.661333 125.44z" fill="#e6e6e6" p-id="2233"></path></svg>